<svg xmlns="http://www.w3.org/2000/svg" viewBox="0 0 24 24" fill="none" stroke="currentColor" stroke-width="1.5" stroke-linecap="round" stroke-linejoin="round">
  <path d="M14 2H6a2 2 0 0 0-2 2v16a2 2 0 0 0 2 2h12a2 2 0 0 0 2-2V8z" />
  <polyline points="14 2 14 8 20 8" />
  <path d="M9 16.5V9h4.5a2.5 2.5 0 0 1 0 5H9" />
  <line x1="6" y1="11.5" x2="9" y2="11.5" />
  <line x1="6" y1="14" x2="13.5" y2="14" />
  <line x1="9" y1="20" x2="9" y2="16.5" />
  <line x1="13.5" y1="16.5" x2="13.5" y2="20" />
</svg>
